<?xml version="1.0" standalone="no"?><!DOCTYPE svg PUBLIC "-//W3C//DTD SVG 1.1//EN" "http://www.w3.org/Graphics/SVG/1.1/DTD/svg11.dtd"><svg class="icon" width="200px" height="200.00px" viewBox="0 0 1024 1024" version="1.1" xmlns="http://www.w3.org/2000/svg"><path d="M512 512m-450.56 0a450.56 450.56 0 1 0 901.12 0 450.56 450.56 0 1 0-901.12 0Z" fill="#d996e6" /><path d="M450.92864 333.49632l246.5792 146.432c19.06688 11.32544 25.00608 35.38944 13.25056 53.76-3.35872 5.28384-7.9872 9.70752-13.49632 12.9024l-246.5792 144.05632c-19.1488 11.20256-44.09344 5.30432-55.7056-13.14816a38.01088 38.01088 0 0 1-5.85728-20.2752V366.77632c0-21.58592 18.14528-39.07584 40.5504-39.07584 7.49568 0 14.86848 2.00704 21.25824 5.81632z" fill="#FFFFFF" /></svg>